<svg width="32" height="32" viewBox="0 0 32 32" fill="none" xmlns="http://www.w3.org/2000/svg">
  <rect width="32" height="32" rx="8" fill="#0D1117"/>
  <defs>
    <linearGradient id="bodyGrad" x1="0%" y1="0%" x2="0%" y2="100%">
      <stop offset="0%" stop-color="#2D2D44"/>
      <stop offset="100%" stop-color="#1A1A2E"/>
    </linearGradient>
    <linearGradient id="ringGrad" x1="0%" y1="0%" x2="0%" y2="100%">
      <stop offset="0%" stop-color="#F0F3F6"/>
      <stop offset="100%" stop-color="#B0B0C0"/>
    </linearGradient>
    <radialGradient id="innerGrad" cx="50%" cy="30%" r="70%">
      <stop offset="0%" stop-color="#2D2D44"/>
      <stop offset="100%" stop-color="#0D1117"/>
    </radialGradient>
  </defs>
  <!-- Left eye body -->
  <ellipse cx="10" cy="16" rx="7" ry="6.5" fill="url(#bodyGrad)"/>
  <!-- Right eye body -->
  <ellipse cx="22" cy="16" rx="7" ry="6.5" fill="url(#bodyGrad)"/>
  <!-- Bridge -->
  <path d="M14 12 Q16 10 18 12 L18 20 Q16 22 14 20 Z" fill="url(#bodyGrad)"/>
  <!-- Left eye ring -->
  <circle cx="10" cy="16" r="5" fill="none" stroke="url(#ringGrad)" stroke-width="1"/>
  <!-- Left inner eye -->
  <circle cx="10" cy="16" r="4" fill="url(#innerGrad)"/>
  <!-- Left pupil -->
  <circle cx="10" cy="16" r="2" fill="#000"/>
  <!-- Left highlight -->
  <circle cx="9" cy="15" r="0.8" fill="white" opacity="0.9"/>
  <!-- Right eye ring -->
  <circle cx="22" cy="16" r="5" fill="none" stroke="url(#ringGrad)" stroke-width="1"/>
  <!-- Right inner eye -->
  <circle cx="22" cy="16" r="4" fill="url(#innerGrad)"/>
  <!-- Right pupil -->
  <circle cx="22" cy="16" r="2" fill="#000"/>
  <!-- Right highlight -->
  <circle cx="21" cy="15" r="0.8" fill="white" opacity="0.9"/>
  <!-- Orange accent -->
  <circle cx="16" cy="16" r="1" fill="#FF6B35"/>
</svg>
